<?xml version="1.0" encoding="utf-8"?>
<!-- Generator: Adobe Illustrator 24.3.0, SVG Export Plug-In . SVG Version: 6.00 Build 0)  -->
<svg version="1.1" id="Layer_1" xmlns="http://www.w3.org/2000/svg" xmlns:xlink="http://www.w3.org/1999/xlink" x="0px" y="0px"
	 viewBox="0 0 566.9 153.1" style="enable-background:new 0 0 566.9 153.1;" xml:space="preserve">
<style type="text/css">
	.st0{fill-rule:evenodd;clip-rule:evenodd;fill:#E30613;}
	.st1{fill-rule:evenodd;clip-rule:evenodd;fill:#6F6F6E;}
</style>
<g>
	<path class="st0" d="M506.1,128.2h-20.7v-5.4h20.7c1.3,0,2.4-0.5,3.3-1.6c0.9-1.1,1.4-2.3,1.4-3.8v-4.1c-1.4,0.9-2.9,1.4-4.6,1.4
		h-11.5c-2.5,0-4.7-1-6.5-3.1c-1.8-2.1-2.7-4.6-2.7-7.6v-2.7c0-3,0.9-5.5,2.7-7.6c1.8-2.1,4-3.1,6.5-3.1h11.5c2.5,0,4.7,1.1,6.5,3.1
		c1.8,2.1,2.7,4.6,2.7,7.6v16.1c0,3-0.9,5.5-2.7,7.6C510.8,127.1,508.6,128.2,506.1,128.2L506.1,128.2z M494.5,109.4h11.5
		c1.3,0,2.4-0.5,3.3-1.6c0.9-1,1.4-2.3,1.4-3.8v-2.7c0-1.5-0.4-2.7-1.4-3.8c-0.9-1.1-2-1.6-3.3-1.6h-11.5c-1.3,0-2.4,0.5-3.3,1.6
		c-0.9,1-1.3,2.3-1.3,3.8v2.7c0,1.5,0.4,2.8,1.3,3.8C492.2,108.9,493.3,109.4,494.5,109.4z"/>
	<path class="st0" d="M550,90.6V96h-25.3v10.7h16.1c2.5,0,4.7,1,6.5,3.1c1.8,2.1,2.7,4.6,2.7,7.6c0,3-0.9,5.5-2.7,7.6
		c-1.8,2.1-4,3.1-6.5,3.1h-20.7v-5.4h20.7c1.3,0,2.4-0.5,3.3-1.6c0.9-1.1,1.4-2.3,1.4-3.8s-0.4-2.7-1.4-3.8c-0.9-1.1-2-1.6-3.3-1.6
		h-20.7V90.6H550z"/>
	<path class="st0" d="M448.8,90.6V96h-25.3v10.7h16.1c2.5,0,4.7,1,6.5,3.1c1.8,2.1,2.7,4.6,2.7,7.6c0,3-0.9,5.5-2.7,7.6
		c-1.8,2.1-4,3.1-6.5,3.1h-20.7v-5.4h20.7c1.3,0,2.4-0.5,3.3-1.6c0.9-1.1,1.4-2.3,1.4-3.8s-0.4-2.7-1.4-3.8c-0.9-1.1-2-1.6-3.3-1.6
		h-20.7V90.6H448.8z"/>
	<g>
		<path class="st1" d="M352.3,127.9c0-0.1,0-0.2,0-0.3v-20.7c0-0.1,0-0.2-0.1-0.3c-0.1-0.1-0.1-0.3-0.3-0.4l-3-3.6l-0.2-0.2v25.2
			c0,0.1,0,0.2,0,0.3c0,0.1,0.1,0.1,0.1,0.2c0.1,0.1,0.1,0.1,0.2,0.1c0.1,0,0.2,0,0.3,0h2.2c0.1,0,0.2,0,0.3,0
			c0.1,0,0.1-0.1,0.2-0.1C352.2,128.1,352.3,128,352.3,127.9z"/>
		<path class="st1" d="M377.4,96c-0.1,0.1-0.2,0.3-0.2,0.5v27.5l-23.9-27.9c-0.1-0.1-0.3-0.2-0.4-0.3c-0.1,0-0.2-0.1-0.2-0.1h-3.9
			l0,0c0,0.1,0.1,0.1,0.1,0.2c5.1,5.5,24,26.3,27.1,31.4c0.1,0.1,0.2,0.2,0.4,0.3c0.1,0.1,0.3,0.2,0.5,0.3c0.2,0.1,0.3,0.1,0.5,0.2
			c0.1,0,0.3,0.1,0.4,0.1h2.4c0.1,0,0.2,0,0.3,0c0.1,0,0.2-0.1,0.2-0.1c0.1-0.1,0.1-0.1,0.1-0.2c0-0.1,0.1-0.2,0.1-0.3v-31
			c0-0.1,0-0.2-0.1-0.3c0-0.1-0.1-0.2-0.2-0.2c-0.1-0.1-0.2-0.1-0.3-0.2c-0.1,0-0.2-0.1-0.3-0.1h-2.1c-0.1,0-0.2,0-0.3,0.1
			C377.6,95.9,377.5,96,377.4,96z"/>
		<path class="st1" d="M345.4,128.2l-0.1-0.3l-15.2-31.1c-0.1-0.1-0.2-0.3-0.3-0.4c-0.1-0.1-0.2-0.2-0.3-0.3
			c-0.1-0.1-0.2-0.2-0.4-0.2c-0.1,0-0.2-0.1-0.3-0.1h-3c-0.1,0-0.2,0-0.3,0.1c-0.1,0-0.2,0.1-0.4,0.2c-0.1,0.1-0.2,0.2-0.3,0.3
			c-0.1,0.1-0.2,0.2-0.2,0.4l-15.2,31.1l-0.1,0.3c0,0,0,0,0,0l0,0.1c0,0,0.1,0,0.2,0h3.2c0.1,0,0.1,0,0.2,0c0.1,0,0.1-0.1,0.2-0.2
			l14.5-29.9l8.6,18.6h-12.1c-0.1,0-0.2,0-0.3,0.1c-0.1,0.1-0.1,0.1-0.2,0.3l-1.4,2.9l0,0.1h15.7l3.8,8c0.1,0.2,0.2,0.2,0.3,0.2h3.6
			C345.4,128.3,345.4,128.3,345.4,128.2L345.4,128.2C345.5,128.2,345.4,128.2,345.4,128.2L345.4,128.2z M321.8,120.1L321.8,120.1
			L321.8,120.1L321.8,120.1z M321.8,120.1"/>
		<path class="st1" d="M285,96.3c0,0.1-0.1,0.2-0.1,0.3v31c0,0.1,0,0.2,0,0.3c0,0.1,0.1,0.1,0.1,0.2c0.1,0.1,0.1,0.1,0.2,0.1
			c0.1,0,0.2,0,0.3,0h2.6c0.1,0,0.2,0,0.3,0c0.1,0,0.2-0.1,0.2-0.1c0.1-0.1,0.2-0.3,0.2-0.5V99.3h15.3c0.4,0,0.9,0,1.3,0.1
			c0.4,0.1,0.8,0.2,1.2,0.4c0.4,0.2,0.8,0.4,1.1,0.6c0.4,0.2,0.7,0.5,1,0.8c0.3,0.3,0.6,0.6,0.8,0.9c0.2,0.3,0.4,0.7,0.6,1.1
			c0.4,0.8,0.5,1.6,0.5,2.5c0,0.4,0,0.9-0.1,1.3c-0.1,0.4-0.2,0.8-0.4,1.2c-0.2,0.4-0.4,0.7-0.6,1.1c-0.2,0.3-0.5,0.6-0.8,0.9
			c-0.3,0.3-0.6,0.5-1,0.8c-0.4,0.2-0.7,0.4-1.1,0.6c-0.4,0.2-0.8,0.3-1.2,0.4c-0.4,0.1-0.9,0.1-1.3,0.1h-10c-0.1,0-0.2,0-0.3,0
			c-0.1,0-0.1,0.1-0.2,0.1c-0.1,0.1-0.2,0.3-0.2,0.5v2c0,0.1,0,0.2,0,0.3c0,0.1,0.1,0.1,0.1,0.2c0.1,0.1,0.1,0.1,0.2,0.1
			c0.1,0,0.2,0,0.3,0H305c1.3,0,2.6-0.3,3.8-0.8c0.6-0.3,1.1-0.6,1.6-0.9c0.5-0.3,1-0.7,1.4-1.2s0.8-0.9,1.2-1.4
			c0.3-0.5,0.6-1.1,0.9-1.6c0.5-1.2,0.8-2.4,0.8-3.8c0-0.7-0.1-1.3-0.2-2c-0.1-0.6-0.3-1.2-0.6-1.8c-0.3-0.6-0.6-1.1-0.9-1.7
			c-0.3-0.5-0.7-1-1.2-1.4c-0.4-0.4-0.9-0.8-1.4-1.2c-0.5-0.3-1-0.7-1.6-0.9c-0.6-0.3-1.2-0.4-1.8-0.6c-0.6-0.1-1.3-0.2-2-0.2h-19.4
			c-0.1,0-0.2,0-0.3,0c-0.1,0-0.1,0.1-0.2,0.1C285.1,96.1,285,96.2,285,96.3z"/>
		<path class="st1" d="M281.6,128.2l-0.1-0.3l-15.2-31.1c-0.1-0.1-0.2-0.3-0.3-0.4c-0.1-0.1-0.2-0.2-0.3-0.3
			c-0.1-0.1-0.2-0.2-0.4-0.2c-0.1,0-0.2-0.1-0.3-0.1h-3c-0.1,0-0.2,0-0.3,0.1c-0.1,0-0.2,0.1-0.4,0.2c-0.1,0.1-0.2,0.2-0.3,0.3
			c-0.1,0.1-0.2,0.2-0.2,0.4l-15.2,31.1l-0.1,0.3c0,0,0,0,0,0l0,0.1c0,0,0.1,0,0.2,0h3.2c0.1,0,0.1,0,0.2,0c0.1,0,0.1-0.1,0.2-0.2
			l14.5-29.9l8.6,18.6h-12.1c-0.1,0-0.2,0-0.3,0.1c-0.1,0.1-0.1,0.1-0.2,0.3L258,120c0,0,0,0,0,0.1h15.7l3.8,8
			c0.1,0.2,0.2,0.2,0.3,0.2h3.6C281.5,128.3,281.6,128.3,281.6,128.2L281.6,128.2C281.6,128.2,281.6,128.2,281.6,128.2L281.6,128.2z
			 M257.9,120.1L257.9,120.1L257.9,120.1L257.9,120.1z M258,120.1"/>
		<path class="st1" d="M241.1,119.3L241.1,119.3c0,0.8-0.1,1.5-0.4,2.1c-0.3,0.6-0.7,1.2-1.2,1.8c-0.5,0.6-1.1,1-1.8,1.3
			c-0.7,0.3-1.4,0.4-2.2,0.4h-6.8c-0.8,0-1.5-0.1-2.1-0.4c-0.6-0.2-1.2-0.6-1.7-1.1c-0.5-0.5-0.9-1-1.1-1.6
			c-0.3-0.6-0.5-1.2-0.6-1.9l0-0.1c0-0.1,0-0.1,0-0.1c0,0-0.1,0-0.2,0h-3.2c-0.1,0-0.2,0-0.2,0c0,0,0,0.1,0,0.2
			c0,0.6,0.1,1.2,0.2,1.7c0.1,0.6,0.3,1.1,0.6,1.6c0.3,0.5,0.6,1,0.9,1.5c0.4,0.5,0.8,0.9,1.2,1.2c0.4,0.4,0.9,0.7,1.4,1
			c0.5,0.3,1,0.6,1.6,0.8c1.1,0.4,2.2,0.6,3.3,0.6h6.7c0.6,0,1.3-0.1,1.8-0.2c0.6-0.1,1.2-0.3,1.7-0.6c0.6-0.2,1.1-0.5,1.6-0.9
			c0.5-0.3,0.9-0.7,1.4-1.1c0.4-0.4,0.8-0.9,1.1-1.3c0.3-0.5,0.6-1,0.9-1.6c0.2-0.5,0.4-1.1,0.5-1.7c0.1-0.6,0.2-1.2,0.2-1.8l0-0.3
			V96.5c0-0.1,0-0.2,0-0.3c0-0.1-0.1-0.2-0.1-0.2c0,0-0.1-0.1-0.1-0.1c-0.1,0-0.1,0-0.2,0h-2.4c-0.1,0-0.2,0-0.3,0
			c-0.1,0-0.1,0.1-0.2,0.1c-0.1,0.1-0.1,0.1-0.1,0.2c0,0.1,0,0.2,0,0.3V119.3z"/>
	</g>
	<path class="st1" d="M542.2,43c0-0.5,0.2-1.1,0.8-1.7l5.3-6.2c0.5-0.7,1-1,1.3-1c0.3,0,0.4,0.2,0.4,0.7v42.7c0,0.6-0.2,1.1-0.6,1.4
		c-0.4,0.4-0.9,0.5-1.5,0.5h-3.7c-0.6,0-1.1-0.2-1.5-0.5c-0.4-0.4-0.5-0.8-0.5-1.4V43L542.2,43z"/>
	<path class="st1" d="M433.2,48.5c0-0.6,0.2-1.1,0.5-1.4c0.4-0.4,0.8-0.5,1.4-0.5h27.3c0.5,0,1,0.2,1.4,0.5c0.4,0.4,0.6,0.8,0.6,1.4
		v3.4c0,0.6-0.2,1.1-0.6,1.4c-0.4,0.4-0.9,0.5-1.4,0.5h-27.3c-0.6,0-1.1-0.2-1.4-0.5c-0.4-0.4-0.5-0.8-0.5-1.4V48.5L433.2,48.5z"/>
	<path class="st1" d="M427.2,72h38.6c0.5,0,1,0.2,1.4,0.6c0.4,0.4,0.6,0.9,0.6,1.5v3.5c0,0.5-0.2,1-0.6,1.4
		c-0.4,0.4-0.9,0.6-1.4,0.6h-45c-0.5,0-1-0.2-1.4-0.6c-0.4-0.4-0.6-0.9-0.6-1.4V25.4c0-0.6,0.2-1.1,0.6-1.5c0.4-0.4,0.9-0.6,1.4-0.6
		h44.5c0.6,0,1.1,0.2,1.5,0.6c0.4,0.4,0.6,0.9,0.6,1.5v3.5c0,0.5-0.2,1-0.6,1.4c-0.4,0.4-0.9,0.6-1.5,0.6h-38.1V72L427.2,72z"/>
	<path class="st1" d="M372.9,38.8c0-0.6,0.2-1.1,0.6-1.4c0.4-0.4,0.9-0.5,1.5-0.5h4.4c0.6,0,1.1,0.2,1.4,0.5
		c0.4,0.4,0.5,0.8,0.5,1.4v38.7c0,0.6-0.2,1.1-0.5,1.4c-0.4,0.4-0.8,0.5-1.4,0.5H375c-0.6,0-1.1-0.2-1.5-0.5
		c-0.4-0.4-0.6-0.8-0.6-1.4V38.8L372.9,38.8z"/>
	<path class="st1" d="M349.9,25.3c0-0.5,0.2-1,0.5-1.4c0.4-0.4,0.8-0.6,1.4-0.6h50.8c0.6,0,1.1,0.2,1.4,0.6c0.4,0.4,0.5,0.9,0.5,1.4
		v3.5c0,1.4-0.7,2.1-2,2.1h-50.8c-0.6,0-1.1-0.2-1.4-0.6c-0.4-0.4-0.5-0.9-0.5-1.5V25.3L349.9,25.3z"/>
	<path class="st1" d="M289.8,63.2c0.8,0,1.2,0.4,1.2,1.1c0.3,2.1,1.2,3.9,2.7,5.4c1.5,1.5,3.4,2.2,5.8,2.2h20.8
		c2.5,0,4.5-0.9,6.1-2.6c1.6-1.7,2.4-3.8,2.4-6.1c0-2.3-0.8-4.3-2.4-6c-1.6-1.7-3.6-2.5-6.1-2.5h-19.8c-2.2,0-4.2-0.4-6.1-1.3
		c-1.9-0.8-3.5-2-4.9-3.4c-1.4-1.4-2.5-3.1-3.3-5c-0.8-1.9-1.2-4-1.2-6.1c0-2.2,0.4-4.2,1.2-6.1c0.8-1.9,1.9-3.5,3.3-4.9
		c1.4-1.4,3.1-2.5,4.9-3.4c1.9-0.8,3.9-1.3,6.1-1.3h19.4c1.8,0,3.6,0.4,5.5,1.1c1.8,0.7,3.5,1.7,5,3c1.5,1.3,2.7,2.8,3.6,4.5
		c0.9,1.7,1.4,3.6,1.4,5.7c0,0.7-0.4,1.1-1.2,1.1h-4.7c-0.7,0-1.1-0.4-1.2-1.1c-0.3-1.9-1.1-3.5-2.4-4.8c-1.3-1.3-3.1-2-5.3-2H300
		c-2.3,0-4.2,0.8-5.7,2.3c-1.5,1.5-2.2,3.4-2.2,5.5c0,2.1,0.7,4,2.1,5.5c1.4,1.6,3.3,2.4,5.7,2.4h20.1c2.2,0,4.4,0.4,6.4,1.3
		c2,0.8,3.7,2,5.2,3.5c1.5,1.5,2.7,3.2,3.6,5.2c0.9,2,1.3,4.2,1.3,6.5s-0.4,4.5-1.3,6.5c-0.9,2-2,3.7-3.6,5.2
		c-1.5,1.5-3.2,2.6-5.2,3.5c-2,0.9-4.1,1.3-6.4,1.3h-20.5c-2,0-3.9-0.4-5.8-1.1c-1.9-0.8-3.7-1.8-5.2-3.2c-1.6-1.3-2.8-2.9-3.8-4.8
		c-1-1.8-1.5-3.8-1.5-5.9c0-0.8,0.4-1.2,1.2-1.2H289.8L289.8,63.2z"/>
	<path class="st1" d="M215,25.1c-0.3-0.3-0.4-0.7-0.4-1.1c0-0.4,0.3-0.7,0.9-0.7h7.5c0.5,0,1.1,0.3,1.6,0.9l15.2,19.4
		c0.1,0.1,0.2,0.3,0.2,0.5c0,0.2-0.1,0.4-0.2,0.5l-3.8,4.7c-0.2,0.2-0.4,0.3-0.7,0.3c-0.2,0-0.4-0.1-0.7-0.3L215,25.1L215,25.1z"/>
	<path class="st1" d="M247.5,54.8l23.9-29.7c0.4-0.6,0.5-0.9,0.5-1.1c0-0.4-0.3-0.7-0.9-0.7h-7.3c-0.6,0-1.1,0.3-1.5,0.9l-22.1,28.7
		c-0.3,0.4-0.6,0.8-0.8,1.2c-0.2,0.4-0.3,0.9-0.3,1.4v22c0,1.3,0.7,2,2,2h4.3c1.4,0,2.1-0.7,2.1-2V54.8L247.5,54.8z"/>
	<g>
		<path class="st0" d="M36.3,58.6c2.9,6.6,6.4,8.7,10.1,8.9c-0.4-0.6-0.8-1.4-1.3-2.3l0,0C39.7,55.4,45.7,43,45.7,43l0,0
			c0,0,9,4.9,12.2,18l0,0c0.2,0.9,0.4,1.7,0.3,2.6l0,0c3.5-3.3,5.9-8.5,4-13.6l0,0c-3-7.9-20.4-21.3-20.4-21.3S32.3,49.4,36.3,58.6
			L36.3,58.6z"/>
		<path class="st0" d="M66.6,40.8c3.5-9.4,25-17.5,25-17.5s3,21.7-0.4,29.5l0,0c-2.2,4.9-7.6,7-12.4,6.9l0,0c0.7-0.5,1.1-1.2,1.6-2
			l0,0c6.9-11.6,3.9-21.4,3.9-21.4l0,0c0,0-13,4.6-16,15.5l0,0c-0.3,1-0.6,1.8-0.7,2.6l0,0C65.1,51.5,64,47.6,66.6,40.8L66.6,40.8z"
			/>
		<path class="st0" d="M100,53.1L100,53.1L100,53.1h-0.1h0c-5.2,0-8,1.8-9.8,4.5l0,0c0.8-0.1,1.6,0,2.7,0l0,0
			c11.2,0.1,19,11.6,19,11.6l0,0c0,0-8.8,5.4-21.7,1.6l0,0c-0.9-0.3-1.7-0.5-2.4-1.1c1.2,4.7,4.4,9.4,9.8,10.3l0,0
			c8.4,1.4,28.6-7,28.6-7s-13.3-18.7-23.2-19.8l0,0C101.8,53.2,100.8,53.1,100,53.1L100,53.1L100,53.1z"/>
		<path class="st0" d="M97.6,84c5.5,9.8-0.5,22.2-0.5,22.2l0,0c0,0-9-4.9-12.2-18l0,0c-0.2-0.9-0.4-1.7-0.3-2.6l0,0
			c-3.5,3.3-5.9,8.6-4,13.6l0,0c3,7.9,20.4,21.3,20.4,21.3s9.5-20.8,5.5-30l0,0c-2.9-6.6-6.4-8.7-10.2-8.9l0,0
			C96.8,82.3,97.1,83.1,97.6,84L97.6,84z"/>
		<path class="st0" d="M63.9,90.9c1.5,0,3,0.3,4.5,0.7l0,0c-0.8,0.3-1.4,0.9-2.1,1.5l0,0c-9.7,9.3-9.4,19.6-9.4,19.6l0,0
			c0,0,13.8-1,19.5-10.6l0,0c0.5-0.9,1-1.6,1.3-2.3l0,0c1.7,3.4,1.6,7.4-2.7,13.3l0,0c-5.9,8.1-28.7,10.2-28.7,10.2v0
			c0-0.3,2.9-21.8,8.3-28.3l0,0c2.4-2.8,5.8-4,9.2-4H63.9L63.9,90.9L63.9,90.9z"/>
		<path class="st0" d="M43.4,70.1L43.4,70.1L43.4,70.1c-9.3,0-26.6,7.1-26.6,7.1C16.8,77.3,30,95.9,40,97l0,0
			c7.2,0.8,10.7-1.2,12.8-4.3l0,0c-0.8,0.1-1.6,0-2.6,0l0,0c-11.2-0.1-19-11.6-19-11.6l0,0c0,0,8.7-5.4,21.7-1.6l0,0
			c0.9,0.3,1.7,0.5,2.4,1.1c-1.1-4.7-4.4-9.4-9.8-10.3l0,0C44.8,70.1,44.1,70.1,43.4,70.1L43.4,70.1L43.4,70.1L43.4,70.1z"/>
	</g>
	<path class="st1" d="M155.2,63.2c0.8,0,1.2,0.4,1.2,1.1c0.3,2.1,1.2,3.9,2.7,5.4c1.5,1.5,3.4,2.2,5.8,2.2h20.8
		c2.5,0,4.5-0.9,6.1-2.6c1.6-1.7,2.4-3.8,2.4-6.1c0-2.3-0.8-4.3-2.4-6c-1.6-1.7-3.6-2.5-6.1-2.5h-19.8c-2.2,0-4.2-0.4-6.1-1.3
		c-1.9-0.8-3.5-2-5-3.4c-1.4-1.4-2.5-3.1-3.3-5c-0.8-1.9-1.2-4-1.2-6.1c0-2.2,0.4-4.2,1.2-6.1c0.8-1.9,1.9-3.5,3.3-4.9
		c1.4-1.4,3.1-2.5,5-3.4c1.9-0.8,3.9-1.3,6.1-1.3h19.4c1.8,0,3.6,0.4,5.5,1.1c1.8,0.7,3.5,1.7,5,3c1.5,1.3,2.7,2.8,3.6,4.5
		c0.9,1.7,1.4,3.6,1.4,5.7c0,0.7-0.4,1.1-1.2,1.1h-4.7c-0.7,0-1.1-0.4-1.2-1.1c-0.3-1.9-1.1-3.5-2.4-4.8c-1.3-1.3-3.1-2-5.3-2h-20.6
		c-2.3,0-4.2,0.8-5.7,2.3c-1.5,1.5-2.2,3.4-2.2,5.5c0,2.1,0.7,4,2.1,5.5c1.4,1.6,3.3,2.4,5.7,2.4h20.1c2.2,0,4.4,0.4,6.4,1.3
		c2,0.8,3.7,2,5.2,3.5c1.5,1.5,2.7,3.2,3.6,5.2c0.9,2,1.3,4.2,1.3,6.5s-0.4,4.5-1.3,6.5c-0.9,2-2,3.7-3.6,5.2
		c-1.5,1.5-3.2,2.6-5.2,3.5c-2,0.9-4.1,1.3-6.4,1.3h-20.5c-2,0-3.9-0.4-5.8-1.1c-1.9-0.8-3.7-1.8-5.2-3.2c-1.6-1.3-2.8-2.9-3.8-4.8
		c-1-1.8-1.5-3.8-1.5-5.9c0-0.8,0.4-1.2,1.2-1.2H155.2z"/>
	<path class="st1" d="M549.4,23.3h-5.9c-0.6,0-1.1,0.3-1.7,0.9l-23,27.7l-23.6-27.7c-0.6-0.6-1.3-0.9-2.1-0.9h-3.3
		c-0.6,0-1.1,0.2-1.5,0.6c-0.4,0.4-0.5,0.9-0.5,1.5v51.5v2.5v1.8l-34.3,45.3c-0.3,0.5-0.3,1.1,0.2,1.5l2,1.5
		c0.5,0.3,1.1,0.3,1.5-0.2l37.7-49.9h0v0v-3V34.2l22,25.5c0.1,0.1,0.2,0.3,0.4,0.4c0.4,0.3,0.9,0.4,1.4,0.4c0.4,0,0.9-0.1,1.3-0.4
		c0.2-0.1,0.4-0.3,0.4-0.4l28.9-34.6c0.4-0.5,0.5-0.9,0.5-1.1C550.2,23.5,549.9,23.3,549.4,23.3z"/>
</g>
</svg>
